<?xml version="1.0" encoding="UTF-8"?>
<svg id="Capa_1" xmlns="http://www.w3.org/2000/svg" version="1.1" viewBox="0 0 1000 192.12">
  <!-- Generator: Adobe Illustrator 30.2.1, SVG Export Plug-In . SVG Version: 2.1.1 Build 1)  -->
  <defs>
    <style>
      .st0 {
        fill: #ff214f;
      }
    </style>
  </defs>
  <g>
    <path d="M674.77,192.07l-57.09-135.04-57.72,135.09-32.22-.13L609.18.42c5.76-.56,11.07-.55,17.22-.03l81.25,191.57-32.88.11Z"/>
    <polygon points="933.2 131.42 901.61 57.1 843.96 192.02 811.71 191.94 893.35 0 910.21 .01 965.68 130.84 933.2 131.42"/>
    <polygon points="770.69 99.77 770.58 191.5 740.66 191.55 740.66 100.37 681.59 .4 716.22 0 755.78 66.74 790.36 67.04 770.69 99.77"/>
    <polygon points="517.15 162.46 504.72 192.12 387.99 192.18 387.95 111.35 417.91 111.03 418.01 162.37 517.15 162.46"/>
    <polygon class="st0" points="657.49 191.4 578.02 191.54 590.23 161.99 645.1 161.97 657.49 191.4"/>
    <polygon class="st0" points="808.85 36.38 773.66 36.38 795.33 .07 830.32 .25 808.85 36.38"/>
    <polygon class="st0" points="991.5 191.92 958.94 192.26 945.72 161.43 978.7 161.34 991.5 191.92"/>
    <path d="M319.49,157.19l.21-23.04,29.99-.1.06,38.84c-17.79,14.7-39.61,21.47-62.81,21.06-51.51-.91-92.72-42.07-95.11-92.39C189.4,50.36,227.43,5.72,279.25.55c25.46-2.54,49.94,3.62,70.4,19.31l.06,21.19-23.62.16c-31.54-20.61-72.84-11.92-93.41,19.16-20.32,30.71-11.71,73.16,20.17,93.26,20.29,12.8,44.71,13.88,66.64,3.55Z"/>
  </g>
  <rect class="st0" x="289.1" y="81.49" width="60.59" height="29.97"/>
  <polygon class="st0" points="38.87 192.07 6.5 192.12 19.31 161.43 51.66 161.4 38.87 192.07"/>
  <rect class="st0" x="387.96" y=".07" width="30.02" height="81.7"/>
  <polygon points="153.74 192.32 96.43 57.1 64.63 131.04 32.47 130.87 88.15 0 105.03 .16 186.4 191.96 153.74 192.32"/>
</svg>